<svg height="430pt" viewBox="0 -12 430.46571 430" width="430pt" xmlns="http://www.w3.org/2000/svg"><path d="m399.507812 297.914062c-2.667968-2.664062-6.988281-2.664062-9.652343 0l-9.65625 9.652344-43.449219-43.441406 14.484375-14.484375c7.988281-7.984375 7.988281-20.972656 0-28.960937-7.988281-7.984376-20.972656-7.984376-28.960937 0l-4.828126 4.828124-33.214843-33.21875 74.984375-74.980468c.875-.867188 1.484375-1.960938 1.792968-3.148438l21.464844-84.734375c.59375-2.339843-.097656-4.8125-1.804687-6.519531-1.722657-1.699219-4.1875-2.351562-6.542969-1.757812l-84.21875 21.972656c-1.175781.308594-2.238281.921875-3.097656 1.78125l-74.988282 74.984375-68.15625-68.160157c-.859374-.859374-1.925781-1.472656-3.105468-1.78125l-84.226563-21.96875c-2.324219-.597656-4.816406.058594-6.53125 1.757813-1.714843 1.707031-2.398437 4.1875-1.808593 6.527344l21.472656 84.726562c.308594 1.1875.921875 2.28125 1.796875 3.148438l68.15625 68.15625-26.390625 26.390625-4.828125-4.828125c-7.730469-7.730469-21.246094-7.730469-28.957031 0-7.988282 7.988281-7.988282 20.972656 0 28.960937l14.480468 14.484375-43.449218 43.441407-9.652344-9.652344c-2.667969-2.664063-6.988282-2.664063-9.652344 0l-28.96875 28.957031c-1.28125 1.28125-2 3.015625-2 4.828125s.71875 3.542969 2 4.824219l10.238281 10.238281c-8.820312 13.363281-7.21875 31.402344 4.25 42.863281 6.652344 6.652344 15.378907 10.039063 24.140625 10.039063 6.519532 0 13.007813-1.992188 18.726563-5.785156l10.230469 10.234374c1.28125 1.277344 3.015624 2 4.828124 2s3.546876-.722656 4.828126-2l28.957031-28.96875c2.667969-2.667968 2.667969-6.988281 0-9.652343l-9.652344-9.652344 43.449219-43.449219 19.304687 19.308594c3.867188 3.867188 9.011719 6 14.480469 6 5.472656 0 10.621094-2.132812 14.476562-5.996094 3.867188-3.867187 6.003907-9.011718 6.003907-14.484375 0-5.46875-2.136719-10.613281-6.003907-14.480469l-4.824218-4.824218 26.390625-26.390625 33.214843 33.214843-4.824218 4.828126c-3.867188 3.867187-6.003906 9.011718-6.003906 14.476562 0 5.476562 2.136718 10.621094 5.996093 14.480469 3.867188 3.867187 9.011719 6 14.484375 6 5.46875 0 10.613282-2.132813 14.480469-6l19.304687-19.304688 43.449219 43.445313-9.652343 9.652344c-2.667969 2.667968-2.667969 6.988281 0 9.65625l28.957031 28.964843c1.28125 1.28125 3.015625 2 4.828125 2s3.546875-.71875 4.828125-2l10.230469-10.230469c5.671874 3.730469 12.160156 5.691407 18.699218 5.691407 8.789063 0 17.566406-3.339844 24.167969-9.945313 11.480469-11.476562 12.972656-29.5625 4.234375-42.851562l10.246094-10.25c2.667968-2.664063 2.667968-6.988282 0-9.652344zm-91.714843-62.753906-21.472657 21.472656-33.214843-33.21875 21.46875-21.46875zm-225.554688-119.351562-18.171875-71.707032 71.253906 18.59375 66.847657 66.847657-21.46875 21.464843-29.539063-29.539062c-2.667968-2.667969-6.988281-2.667969-9.652344 0-2.667968 2.664062-2.667968 6.984375 0 9.652344l29.539063 29.539062-21.976563 21.976563zm-56.097656 257.339844c-6.203125-6.199219-7.632813-15.625-3.984375-23.289063l27.25 27.25c-7.667969 3.675781-16.992188 2.316406-23.265625-3.960937zm48.273437 9.660156-57.933593-57.933594 19.3125-19.304688 57.925781 57.925782zm14.480469-43.449219-28.96875-28.964844 43.449219-43.445312 28.964844 28.964843zm91.703125-24.140625c-2.566406 2.582031-7.058594 2.582031-9.644531 0l-82.058594-82.058594c-2.660156-2.660156-2.660156-6.992187.003907-9.652344 1.289062-1.292968 2.996093-2 4.820312-2 1.820312 0 3.535156.710938 4.828125 2l82.058594 82.058594c1.289062 1.292969 2 3.007813 2 4.828125 0 1.828125-.707031 3.535157-2.007813 4.824219zm-26.792968-55.757812 135.160156-135.167969c2.667968-2.664063 2.667968-6.984375 0-9.652344-2.664063-2.664063-6.984375-2.664063-9.652344 0l-135.160156 135.167969-21.472656-21.476563 172.472656-172.464843 71.246094-18.59375-18.164063 71.707031-172.453125 172.453125zm67.671874-4.414063 21.976563-21.980469 33.214844 33.222656-21.976563 21.972657zm38.042969 67c-2.585937 2.582031-7.066406 2.59375-9.652343-.007813-1.292969-1.285156-2-2.992187-2-4.820312 0-1.816406.710937-3.53125 2-4.824219l82.058593-82.058593c1.332031-1.335938 3.082031-1.996094 4.828125-1.996094s3.492188.660156 4.824219 1.996094c2.660156 2.660156 2.660156 6.992187 0 9.652343zm38.613281-19.304687 28.964844-28.964844 43.449219 43.441406-28.96875 28.96875zm57.925782 86.890624-19.304688-19.3125 57.925782-57.925781 19.304687 19.308594zm48.273437-9.65625c-6.226562 6.214844-15.613281 7.535157-23.242187 3.933594l27.179687-27.183594c3.597657 7.632813 2.265625 17.050782-3.9375 23.25zm0 0"/><path d="m173.292969 45.214844c12.160156 2.179687 22.054687 11.3125 25.199219 23.265625l.839843 3.1875c.789063 3 3.5 5.09375 6.601563 5.09375 3.097656 0 5.8125-2.097657 6.597656-5.09375l.839844-3.1875c3.15625-11.953125 13.050781-21.085938 25.207031-23.265625 3.253906-.589844 5.621094-3.414063 5.621094-6.722656 0-3.308594-2.367188-6.132813-5.621094-6.71875-12.15625-2.179688-22.050781-11.316407-25.207031-23.261719l-.839844-3.191407c-.785156-2.996093-3.5-5.085937-6.597656-5.085937-3.101563 0-5.8125 2.09375-6.601563 5.085937l-.839843 3.191407c-3.144532 11.945312-13.03125 21.082031-25.199219 23.261719-3.253907.585937-5.621094 3.410156-5.621094 6.71875 0 3.308593 2.367187 6.136718 5.621094 6.722656zm32.640625-20.179688c3.472656 5.371094 8.046875 9.964844 13.378906 13.460938-5.332031 3.5-9.90625 8.085937-13.378906 13.460937-3.472656-5.375-8.039063-9.960937-13.375-13.460937 5.335937-3.496094 9.902344-8.085938 13.375-13.460938zm0 0"/><path d="m376.601562 121.167969c-3.101562 0-5.816406 2.085937-6.601562 5.085937l-1.257812 4.78125c-5.042969 19.152344-20.894532 33.777344-40.386719 37.273438-3.253907.578125-5.621094 3.410156-5.621094 6.71875s2.367187 6.132812 5.621094 6.722656c19.492187 3.492188 35.34375 18.125 40.386719 37.277344l1.257812 4.78125c.785156 3 3.5 5.085937 6.601562 5.085937 3.097657 0 5.8125-2.085937 6.597657-5.085937l1.261719-4.78125c5.042968-19.152344 20.898437-33.785156 40.382812-37.277344 3.253906-.589844 5.621094-3.414062 5.621094-6.722656s-2.367188-6.140625-5.621094-6.71875c-19.492188-3.496094-35.339844-18.121094-40.382812-37.273438l-1.261719-4.78125c-.785157-3-3.5-5.085937-6.597657-5.085937zm26.617188 53.859375c-11.28125 6.09375-20.59375 15.441406-26.621094 26.835937-6.019531-11.394531-15.332031-20.742187-26.621094-26.835937 11.289063-6.085938 20.601563-15.433594 26.621094-26.828125 6.027344 11.394531 15.339844 20.742187 26.621094 26.828125zm0 0"/><path d="m11.445312 161.265625c8.019532 1.441406 14.542969 7.460937 16.613282 15.339844l.605468 2.300781c.789063 3 3.5 5.085938 6.601563 5.085938 3.097656 0 5.8125-2.085938 6.597656-5.085938l.605469-2.300781c2.082031-7.878907 8.601562-13.898438 16.621094-15.339844 3.253906-.585937 5.621094-3.410156 5.621094-6.71875s-2.367188-6.132813-5.621094-6.722656c-8.019532-1.4375-14.546875-7.453125-16.621094-15.332031l-.605469-2.300782c-.785156-3-3.5-5.085937-6.597656-5.085937-3.101563 0-5.8125 2.089843-6.601563 5.085937l-.605468 2.308594c-2.074219 7.871094-8.59375 13.886719-16.613282 15.324219-3.25.589843-5.617187 3.414062-5.617187 6.722656s2.367187 6.136719 5.617187 6.71875zm23.820313-13.078125c1.832031 2.386719 3.960937 4.527344 6.335937 6.359375-2.375 1.839844-4.503906 3.980469-6.335937 6.363281-1.824219-2.382812-3.953125-4.519531-6.324219-6.363281 2.371094-1.832031 4.496094-3.972656 6.324219-6.359375zm0 0"/></svg>